Coordinates
version=1
nRows=6
nColumns=36
inDegrees=yes

Units are S.I. units (second, meters, Newtons, ...)
If the header above contains a line with 'inDegrees', this indicates whether rotational values are in degrees (yes) or radians (no).

endheader
time	pelvis_tilt	pelvis_list	pelvis_rotation	pelvis_tx	pelvis_ty	pelvis_tz	hip_flexion_r	hip_adduction_r	hip_rotation_r	knee_angle_r	knee_angle_r_beta	ankle_angle_r	subtalar_angle_r	mtp_angle_r	hip_flexion_l	hip_adduction_l	hip_rotation_l	knee_angle_l	knee_angle_l_beta	ankle_angle_l	subtalar_angle_l	mtp_angle_l	lumbar_extension	lumbar_bending	lumbar_rotation	arm_flex_r	arm_add_r	arm_rot_r	elbow_flex_r	pro_sup_r	arm_flex_l	arm_add_l	arm_rot_l	elbow_flex_l	pro_sup_l
      0.00000000	     -2.05956886	      0.70788128	      4.81006949	     -0.03898681	      1.19680995	      0.07796614	      3.29205605	     -0.19292465	     -4.76739485	      7.75557286	      0.13536028	      8.12556926	      0.64133563	     -6.35216064	      6.02257808	     -1.85985734	    -14.04443026	      8.50335824	      0.14841160	     -2.78321708	    -13.25642756	     -6.35216064	     -6.24434371	     -0.08907525	     -7.12259225	      8.72097633	    -13.67962602	     25.54961357	     24.63471636	     72.41123530	      5.62577215	    -14.42465362	     26.41489942	     20.77123571	     62.50121202
      0.01666670	     -3.87641109	      0.23494948	      3.74742542	     -0.03759518	      1.19703560	      0.07668128	      5.57409227	     -0.06293805	     -3.83415528	      8.59863177	      0.15007444	     10.58475792	      1.53024579	     -6.38746553	      9.01375283	     -2.39754605	    -16.07046513	     10.07432237	      0.17583010	     -0.34997840	    -11.24991362	     -6.38746553	     -3.58566473	      0.34831131	     -5.86030367	      8.85129884	    -14.27167329	     27.19627471	     23.30286260	     72.99675092	      5.89185017	    -13.72319561	     27.23781453	     20.00322074	     62.78303947
      0.03333330	     -5.11480821	      0.76394203	      2.73999777	     -0.03768192	      1.19526071	      0.07775964	      6.54252710	     -0.58912086	     -4.60881428	      8.00944758	      0.13979123	      9.70540972	      1.83615915	     -6.59960412	     10.28228945	     -2.15612402	    -17.82809402	     10.24926118	      0.17888335	     -0.47182784	    -12.03416759	     -6.59960412	     -1.87447269	     -0.53061013	     -5.39862359	      9.97375954	    -14.76777602	     35.09931314	     22.35507015	     73.68707242	      6.12467503	    -14.66313513	     33.86886136	     19.14695233	     63.83229406
      0.05000000	     -5.19823944	      1.33442913	      2.33732527	     -0.03627774	      1.19579725	      0.07889123	      6.57944745	     -1.17727167	     -4.80690627	      7.31818975	      0.12772651	     11.03035512	      2.64854231	     -7.05082838	     10.14674619	     -1.68122157	    -18.08006621	     10.16265897	      0.17737186	      0.43576013	    -13.45830321	     -7.05082838	     -1.65841676	     -1.27940083	     -4.88582933	     10.44490798	    -15.23253617	     41.87700458	     22.30870128	     65.93880880	      6.89075742	    -15.67339813	     42.19936464	     19.14724458	     56.10782753
      0.06666670	     -5.20348432	      1.60826557	      2.22016652	     -0.03518406	      1.19469953	      0.07833216	      6.44376813	     -1.45487961	     -4.69515690	      6.55895386	      0.11447534	     11.66256450	      2.81168779	     -7.11417716	      9.94257518	     -1.29943858	    -17.74309406	      9.87859235	      0.17241396	      1.47119707	    -13.80386723	     -7.11417716	     -1.84153978	     -1.54963063	     -4.74420055	     10.43514530	    -15.20825447	     42.05977286	     22.56865045	     65.44250721	      6.98844317	    -15.84725448	     42.41925633	     19.22680360	     56.57676199
      0.08333330	     -5.20432156	      2.01657476	      2.36222501	     -0.03364387	      1.19651218	      0.07858373	      6.17802024	     -1.88008011	     -4.75536011	      6.30922081	      0.11011668	     12.05282375	      3.20841154	     -7.30982147	      9.65781221	     -1.08484472	    -18.16268229	     10.42283343	      0.18191276	      0.78448630	    -16.77032232	     -7.30982147	     -1.72503693	     -2.01882290	     -4.69773616	     10.75260256	    -15.04255502	     45.29143743	     21.75073749	     63.70771288	      7.98364905	    -16.22620433	     50.12252478	     18.22818697	     50.17717737
